Coordinates
version=1
nRows=6
nColumns=46
inDegrees=yes

Units are S.I. units (second, meters, Newtons, ...)
Angles are in degrees.

endheader
time	pelvis_tilt	pelvis_list	pelvis_rotation	pelvis_tx	pelvis_ty	pelvis_tz	bb_angle	bb_tx	bb_ty	bb_tz	hip_flexion_r	hip_adduction_r	hip_rotation_r	knee_angle_r	knee_angle_r_beta	ankle_angle_r	subtalar_angle_r	mtp_angle_r	crank_angle_r	hip_flexion_l	hip_adduction_l	hip_rotation_l	knee_angle_l	knee_angle_l_beta	ankle_angle_l	subtalar_angle_l	mtp_angle_l	crank_angle_l	lumbar_extension	lumbar_bending	lumbar_rotation	arm_flex_r	arm_add_r	arm_rot_r	elbow_flex_r	pro_sup_r	wrist_flex_r	wrist_dev_r	arm_flex_l	arm_add_l	arm_rot_l	elbow_flex_l	pro_sup_l	wrist_flex_l	wrist_dev_l
      0.00000000	    -11.54464684	      1.87642070	      4.80408277	      0.15980214	      1.04781056	     -0.24354225	      0.00000000	      0.50000000	      0.00000000	      0.25000000	     40.30151136	     -8.52343743	      0.49665744	     65.89391473	      1.15006577	     10.51807536	     -2.34477591	      0.00000000	      0.00000000	     80.31225452	     -1.07736424	      1.54721333	     88.07045995	      1.53711950	      5.69016570	     -5.63924289	      0.00000000	      0.00000000	    -54.57883500	     -2.28052418	     -4.62830937	     89.23810170	    -10.62140970	     41.22867893	     29.17714022	     34.01969261	      0.00000000	      0.00000000	     88.57298191	     -8.16223483	     35.96384127	     36.97191809	     34.74514863	      0.00000000	      0.00000000
      0.00500000	    -11.51276539	      1.92909890	      4.79036515	      0.15981065	      1.04788333	     -0.24350368	      0.00000000	      0.50000000	      0.00000000	      0.25000000	     40.28127023	     -8.56261154	      0.54405319	     65.90772797	      1.15030686	     10.53394235	     -2.32408200	      0.00000000	      0.00000000	     80.24767154	     -1.07859518	      1.49001260	     88.04904628	      1.53674576	      5.72801949	     -5.65861286	      0.00000000	      0.00000000	    -54.64166454	     -2.33107593	     -4.67219603	     89.23934423	    -10.57342284	     41.07513020	     29.14411166	     34.38917945	      0.00000000	      0.00000000	     88.59013596	     -8.17131527	     35.85271077	     36.95452014	     35.18757135	      0.00000000	      0.00000000
      0.01000000	    -11.51810232	      1.92949948	      4.77243503	      0.15982703	      1.04787266	     -0.24348890	      0.00000000	      0.50000000	      0.00000000	      0.25000000	     40.29572684	     -8.55609236	      0.55146813	     65.92495441	      1.15060751	     10.49919392	     -2.31955580	      0.00000000	      0.00000000	     80.25027738	     -1.09776977	      1.47947770	     88.04769902	      1.53672225	      5.71680736	     -5.64568274	      0.00000000	      0.00000000	    -54.61623358	     -2.35003753	     -4.67824158	     89.24153859	    -10.59735773	     41.20397237	     29.04837413	     34.74889212	      0.00000000	      0.00000000	     88.58602593	     -8.21035774	     35.91662759	     36.86845992	     35.60794853	      0.00000000	      0.00000000
      0.01500000	    -11.53013995	      1.95689190	      4.86975562	      0.15999039	      1.04801623	     -0.24335027	      0.00000000	      0.50000000	      0.00000000	      0.25000000	     40.26386908	     -8.62935430	      0.48842508	     65.89353280	      1.15005910	     10.49663836	     -2.30015488	      0.00000000	      0.00000000	     80.22491238	     -1.02710429	      1.46488943	     88.00602540	      1.53599490	      5.77280249	     -5.56675013	      0.00000000	      0.00000000	    -54.63187621	     -2.30440436	     -4.80222541	     89.23005594	    -10.55776922	     41.16610572	     29.06765173	     35.03126804	      0.00000000	      0.00000000	     88.57720005	     -8.23512563	     35.72514732	     36.87860731	     35.90112198	      0.00000000	      0.00000000
      0.02000000	    -11.56300081	      1.90377645	      4.80276005	      0.15987870	      1.04813070	     -0.24334834	      0.00000000	      0.50000000	      0.00000000	      0.25000000	     40.31515772	     -8.54837455	      0.51661718	     65.89639645	      1.15010908	     10.50962043	     -2.32627266	      0.00000000	      0.00000000	     80.26997393	     -1.10818729	      1.48465523	     88.01749032	      1.53619501	      5.75381466	     -5.73421262	      0.00000000	      0.00000000	    -54.55168528	     -2.30517507	     -4.72465330	     89.23696276	    -10.45507601	     41.06729356	     28.77276771	     35.04292631	      0.00000000	      0.00000000	     88.55376705	     -8.18622278	     35.61546068	     36.62682465	     36.01475179	      0.00000000	      0.00000000
      0.02500000	    -11.39169130	      1.91551800	      4.83108002	      0.15988374	      1.04854033	     -0.24334386	      0.00000000	      0.50000000	      0.00000000	      0.25000000	     40.09279942	     -8.56721168	      0.48396755	     65.84592041	      1.14922811	     10.49947501	     -2.30951604	      0.00000000	      0.00000000	     80.05163701	     -1.06976607	      1.50522047	     87.98954380	      1.53570725	      5.82626228	     -5.71679127	      0.00000000	      0.00000000	    -54.86829112	     -2.26809544	     -4.70565579	     89.20702964	    -10.64064760	     40.37660817	     29.53194442	     35.47726997	      0.00000000	      0.00000000	     88.51457291	     -8.19489413	     35.02323835	     37.30484547	     36.44182087	      0.00000000	      0.00000000
